<svg xmlns="http://www.w3.org/2000/svg" width="13" height="13"><path d="M0 0 C4.29 0 8.58 0 13 0 C13 4.29 13 8.58 13 13 C8.71 13 4.42 13 0 13 C0 8.71 0 4.42 0 0 Z " fill="#82827E" transform="translate(0,0)"></path><path d="M0 0 C2.97 0 5.94 0 9 0 C9 2.97 9 5.94 9 9 C3.4507772 7.41450777 3.4507772 7.41450777 1 6 C0 2.8125 0 2.8125 0 0 Z " fill="#524E49" transform="translate(4,0)"></path><path d="M0 0 C0.99 0.495 0.99 0.495 2 1 C1.9175 1.9075 1.835 2.815 1.75 3.75 C1.73775153 7.01856518 1.73775153 7.01856518 3.5625 9.375 C6.81682503 11.54455002 9.17130414 11.29451507 13 11 C13 11.66 13 12.32 13 13 C8.71 13 4.42 13 0 13 C0 8.71 0 4.42 0 0 Z " fill="#252D38" transform="translate(0,0)"></path></svg>